<svg width="42" height="41" viewBox="0 0 42 41" fill="none" xmlns="http://www.w3.org/2000/svg">
    <path
        d="M33.1702 16.0367C32.8448 16.1517 32.6741 16.5088 32.7892 16.8342C33.2609 18.169 33.5 19.5705 33.5 21C33.5 27.8926 27.8925 33.5 21 33.5C14.1075 33.5 8.5 27.8926 8.5 21C8.5 14.1074 14.1075 8.5 21 8.5C23.965 8.5 26.8398 9.55641 29.0947 11.4747C29.3576 11.6982 29.752 11.6665 29.9757 11.4036C30.1994 11.1407 30.1676 10.7462 29.9046 10.5226C27.4239 8.41219 24.2615 7.25 21 7.25C13.4182 7.25 7.25 13.4182 7.25 21C7.25 28.5818 13.4182 34.75 21 34.75C28.5818 34.75 34.75 28.5818 34.75 21C34.75 19.4283 34.4868 17.8866 33.9678 16.4178C33.8528 16.0923 33.4958 15.9216 33.1702 16.0367Z"
        fill="white" />
    <path
        d="M31.6492 14.4519C31.7673 14.6436 31.9721 14.7491 32.1818 14.7491C32.2937 14.7491 32.4069 14.7191 32.5092 14.6562C32.803 14.4751 32.8944 14.09 32.7132 13.7962C32.4359 13.3462 32.129 12.9073 31.8013 12.4919C31.5874 12.2208 31.1945 12.1744 30.9235 12.3883C30.6524 12.6021 30.6061 12.9951 30.8199 13.2661C31.118 13.6438 31.397 14.0429 31.6492 14.4519Z"
        fill="white" />
    <path
        d="M38.5 17.25H37.4537C37.0319 15.3869 36.3048 13.6308 35.287 12.0163L36.026 11.2773C37.0008 10.3025 37.0008 8.71656 36.026 7.74172L34.2583 5.97391C33.2836 4.99938 31.6975 4.9993 30.7227 5.97391L29.9837 6.71305C28.3693 5.69516 26.6132 4.96813 24.75 4.54633V3.5C24.75 2.12148 23.6285 1 22.25 1H19.75C18.3715 1 17.25 2.12148 17.25 3.5V4.54633C15.3868 4.9682 13.6307 5.69516 12.0163 6.71305L11.2773 5.97391C10.3026 4.99938 8.71648 4.9993 7.74172 5.97391L5.97398 7.7418C4.99922 8.71656 4.99922 10.3025 5.97398 11.2773L6.71305 12.0163C5.69516 13.6309 4.96813 15.387 4.54633 17.25H3.5C2.12148 17.25 1 18.3715 1 19.75V22.25C1 23.6285 2.12148 24.75 3.5 24.75H4.54633C4.96813 26.6131 5.69516 28.3691 6.71305 29.9836L5.97398 30.7227C4.99922 31.6975 4.99922 33.2834 5.97398 34.2583L7.74172 36.0261C8.71641 37.0007 10.3024 37.0009 11.2773 36.026L12.0163 35.2869C13.6308 36.3048 15.3868 37.0319 17.2499 37.4536V38.5C17.2499 39.8785 18.3714 41 19.7499 41H22.2499C23.6284 41 24.7499 39.8785 24.7499 38.5V37.4536C26.613 37.0319 28.3691 36.3048 29.9835 35.287L30.7226 36.0261C31.6973 37.0007 33.2834 37.0009 34.2581 36.0261L36.0259 34.2582C37.0006 33.2834 37.0006 31.6975 36.0259 30.7227L35.2868 29.9837C36.3047 28.3692 37.0317 26.6131 37.4535 24.75H38.5C39.8785 24.75 41 23.6285 41 22.25V19.75C41 18.3715 39.8785 17.25 38.5 17.25ZM39.75 22.25C39.75 22.9392 39.1892 23.5 38.5 23.5H36.9466C36.6476 23.5 36.3904 23.7119 36.3332 24.0055C35.9327 26.0612 35.1369 27.983 33.9682 29.718C33.8011 29.966 33.8331 30.2977 34.0446 30.5091L35.1421 31.6066C35.6295 32.094 35.6295 32.887 35.1421 33.3744L33.3744 35.1422C32.887 35.6295 32.094 35.6295 31.6066 35.1422L30.5091 34.0446C30.2977 33.8332 29.9659 33.8012 29.718 33.9682C27.9829 35.137 26.0609 35.9327 24.0055 36.3331C23.7119 36.3903 23.5 36.6475 23.5 36.9466V38.5C23.5 39.1892 22.9392 39.75 22.25 39.75H19.75C19.0608 39.75 18.5 39.1892 18.5 38.5V36.9466C18.5 36.6475 18.2881 36.3903 17.9945 36.333C15.939 35.9326 14.017 35.1368 12.2821 33.9681C12.1758 33.8965 12.0541 33.8615 11.9331 33.8615C11.7719 33.8615 11.6118 33.9238 11.4909 34.0446L10.3934 35.1422C9.90602 35.6295 9.11305 35.6295 8.62563 35.1422L6.85789 33.3744C6.37055 32.887 6.37055 32.094 6.85789 31.6066L7.95547 30.5091C8.16695 30.2976 8.19898 29.9659 8.03188 29.7179C6.8632 27.983 6.06742 26.061 5.66688 24.0055C5.60969 23.7119 5.3525 23.5 5.05344 23.5H3.5C2.81078 23.5 2.25 22.9392 2.25 22.25V19.75C2.25 19.0608 2.81078 18.5 3.5 18.5H5.05336C5.35242 18.5 5.60961 18.2881 5.6668 17.9945C6.06734 15.939 6.86305 14.0171 8.0318 12.282C8.19891 12.034 8.1668 11.7023 7.95531 11.4909L6.85781 10.3934C6.37047 9.90602 6.37047 9.11297 6.85781 8.62563L8.62563 6.85781C9.11305 6.37055 9.90602 6.37039 10.3934 6.85781L11.4909 7.95539C11.7024 8.1668 12.0341 8.19891 12.282 8.0318C14.0168 6.86313 15.9387 6.06742 17.9945 5.66688C18.288 5.60969 18.5 5.3525 18.5 5.05336V3.5C18.5 2.81078 19.0608 2.25 19.75 2.25H22.25C22.9392 2.25 23.5 2.81078 23.5 3.5V5.05336C23.5 5.35242 23.7119 5.60961 24.0055 5.66688C26.0612 6.0675 27.9831 6.8632 29.718 8.0318C29.9659 8.19891 30.2976 8.16687 30.5091 7.95539L31.6066 6.85781C32.094 6.37055 32.887 6.37039 33.3744 6.85781L35.1421 8.62563C35.6295 9.11297 35.6295 9.90602 35.1421 10.3934L34.0446 11.4909C33.8331 11.7023 33.8011 12.034 33.9682 12.282C35.137 14.017 35.9327 15.939 36.3331 17.9945C36.3903 18.2881 36.6475 18.5 36.9466 18.5H38.5C39.1892 18.5 39.75 19.0608 39.75 19.75V22.25Z"
        fill="white" />
    <path
        d="M17.4733 24.0379L15.1445 24.6427C15.1406 24.6437 15.1367 24.6447 15.1329 24.6458C13.6505 25.0611 12.875 26.5143 12.875 27.7352V28.4102C12.875 29.1491 13.5216 29.7502 14.3166 29.7502L20.9898 29.7494C20.9947 29.7495 20.9993 29.7502 21.0041 29.7502C21.009 29.7502 21.0137 29.7495 21.0185 29.7494L27.6919 29.7487C28.4867 29.7487 29.1334 29.1477 29.1334 28.4088V27.7337C29.1334 26.5128 28.3578 25.0596 26.8755 24.6444C26.8716 24.6433 26.8678 24.6423 26.864 24.6412L24.5352 24.0365C24.3378 23.9784 24.1818 23.8761 24.1481 23.8227L24.1466 22.556C24.1485 22.5537 24.1505 22.5516 24.1525 22.5493C24.951 21.5948 25.3908 20.3583 25.3908 19.0673V18.1238C26.1874 15.5287 25.626 13.2785 25.3379 12.6237C25.337 12.6215 25.3357 12.6195 25.3347 12.6173C25.3291 12.6051 25.323 12.5932 25.3167 12.5815C25.3131 12.5747 25.3097 12.5678 25.3058 12.5612C25.2998 12.5508 25.2931 12.5409 25.2866 12.5309C25.2816 12.5232 25.2766 12.5155 25.2713 12.5081C25.2656 12.5002 25.2594 12.4928 25.2534 12.4852C25.2465 12.4766 25.2396 12.4678 25.2323 12.4596C25.2272 12.4537 25.2216 12.4484 25.2162 12.4428C25.2074 12.4337 25.1987 12.4246 25.1895 12.4161C25.1845 12.4114 25.179 12.4071 25.1738 12.4027C25.1639 12.3941 25.154 12.3855 25.1435 12.3776C25.1375 12.373 25.1312 12.3689 25.125 12.3646C25.115 12.3576 25.1051 12.3505 25.0947 12.3441C25.0866 12.3391 25.0782 12.3347 25.0699 12.3301C25.061 12.3252 25.0523 12.3199 25.0431 12.3154C25.0328 12.3103 25.0222 12.3059 25.0116 12.3013C25.004 12.298 24.9965 12.2945 24.9887 12.2916C24.9772 12.2871 24.9652 12.2834 24.9534 12.2797C24.9462 12.2774 24.9391 12.2748 24.9318 12.2728C24.9202 12.2696 24.9085 12.2673 24.8967 12.2647C24.8885 12.263 24.8805 12.2609 24.8722 12.2595C24.8619 12.2578 24.8514 12.2566 24.841 12.2554C24.8308 12.2541 24.8206 12.2527 24.8103 12.252C24.8018 12.2514 24.7933 12.2514 24.7847 12.2512C24.7721 12.2508 24.7596 12.2505 24.747 12.2509C24.74 12.251 24.733 12.2517 24.726 12.2522C24.712 12.253 24.6978 12.2542 24.6837 12.2561C24.6816 12.2563 24.6795 12.2563 24.6774 12.2566C24.0752 12.3428 23.3404 12.1668 22.5626 11.9806C21.1867 11.6511 19.6349 11.2805 18.2755 12.2606C16.9609 12.3736 16.0289 13.4783 16.0289 14.9714C16.0289 16.0572 16.5327 17.9965 16.6482 18.4268V18.9487C16.6482 20.2963 17.1145 21.5419 17.8621 22.4712L17.8604 23.8243C17.8267 23.8775 17.6707 23.9798 17.4733 24.0379ZM17.8981 18.7351C17.8981 18.1138 18.161 17.2054 18.3575 16.6307C21.1893 16.6957 23.326 17.3758 24.1408 17.6773V18.0241C24.1408 18.026 24.1408 18.028 24.1408 18.0298V19.067C24.1408 20.1688 23.7265 21.1782 23.0802 21.8767C23.0784 21.8784 23.0769 21.8802 23.0752 21.8819C22.5196 22.4801 21.7936 22.8491 21.0112 22.8491C19.3528 22.8491 17.8982 21.0263 17.8982 18.9484V18.7351H17.8981ZM19.1106 23.5648C19.6887 23.9055 20.3348 24.0991 21.0111 24.0991C21.675 24.0991 22.3157 23.9273 22.8978 23.6019L22.8981 23.831C22.8981 24.1409 23.0098 24.4008 23.1833 24.6133L21.0069 25.8978L18.8395 24.5973C19.0047 24.3882 19.1103 24.1343 19.1103 23.8332L19.1106 23.5648ZM14.3165 28.5002C14.1888 28.5002 14.125 28.4273 14.125 28.4102V27.7352C14.125 26.9869 14.5852 26.1003 15.465 25.8509L17.5824 25.301L20.3792 26.9791V28.4994L14.3165 28.5002ZM27.8834 27.7337V28.4087C27.8834 28.4259 27.8195 28.4987 27.6918 28.4987L21.6291 28.4993V26.9819L24.4634 25.3091L26.5436 25.8494C27.4233 26.099 27.8834 26.9854 27.8834 27.7337ZM18.4994 13.5002C18.5013 13.5002 18.5032 13.4999 18.5052 13.4998C18.5238 13.4997 18.5424 13.4988 18.561 13.497C18.5671 13.4965 18.573 13.4953 18.579 13.4945C18.5933 13.4927 18.6075 13.4909 18.6217 13.488C18.6294 13.4866 18.6368 13.4844 18.6444 13.4826C18.6566 13.4797 18.6688 13.4769 18.681 13.4732C18.6893 13.4707 18.6973 13.4676 18.7055 13.4647C18.7166 13.4609 18.7276 13.4571 18.7385 13.4526C18.7472 13.449 18.7555 13.4448 18.7639 13.4409C18.7739 13.4362 18.7839 13.4317 18.7937 13.4265C18.8032 13.4214 18.8123 13.4156 18.8214 13.4101C18.8296 13.4052 18.838 13.4005 18.8461 13.3951C18.8577 13.3873 18.8687 13.3787 18.8798 13.3702C18.8848 13.3664 18.89 13.3631 18.8948 13.3591C19.8145 12.6077 21.0079 12.8936 22.2715 13.1959C22.9516 13.3588 23.65 13.5256 24.3281 13.5281C24.4911 14.1302 24.6513 15.1972 24.4792 16.468C23.462 16.0975 21.0751 15.3751 17.9225 15.3751C17.9212 15.3751 17.9198 15.3752 17.9185 15.3752C17.9031 15.3753 17.8878 15.3763 17.8725 15.3776C17.8667 15.378 17.8608 15.3782 17.855 15.3788C17.842 15.3802 17.8292 15.3825 17.8164 15.3847C17.8084 15.3861 17.8004 15.3871 17.7926 15.3887C17.7831 15.3908 17.7739 15.3935 17.7646 15.3959C17.7539 15.3987 17.7431 15.4012 17.7326 15.4045C17.7265 15.4065 17.7205 15.4091 17.7145 15.4112C17.7015 15.4158 17.6884 15.4203 17.6757 15.4258C17.6709 15.4278 17.6663 15.4304 17.6616 15.4326C17.6483 15.4387 17.6349 15.4449 17.6221 15.4519C17.6148 15.4559 17.6078 15.4606 17.6007 15.465C17.5909 15.4709 17.581 15.4765 17.5716 15.4829C17.5598 15.4909 17.5484 15.4998 17.5371 15.5087C17.5329 15.512 17.5284 15.515 17.5244 15.5184C17.5112 15.5293 17.4986 15.541 17.4863 15.553C17.4844 15.5549 17.4822 15.5567 17.4802 15.5587C17.4691 15.5698 17.4587 15.5816 17.4484 15.5937C17.4455 15.597 17.4423 15.6002 17.4395 15.6036C17.4316 15.6133 17.4243 15.6236 17.4169 15.6339C17.4121 15.6404 17.4071 15.6467 17.4027 15.6534C17.3975 15.6612 17.3929 15.6694 17.388 15.6775C17.382 15.6874 17.3759 15.6973 17.3704 15.7077C17.3671 15.7139 17.3643 15.7205 17.3612 15.7268C17.3572 15.735 17.353 15.7431 17.3493 15.7516C17.3061 15.4568 17.2789 15.1859 17.2789 14.9713C17.2788 14.2927 17.5984 13.5002 18.4994 13.5002Z"
        fill="white" />
</svg>