<svg width="44" height="42" viewBox="0 0 44 42" fill="none" xmlns="http://www.w3.org/2000/svg">
    <path
        d="M20.1074 30.4281C19.9512 30.2755 19.7346 30.1877 19.5137 30.1877C19.2928 30.1877 19.0761 30.2755 18.9199 30.4281C18.7638 30.5807 18.6738 30.7923 18.6738 31.0081C18.6738 31.2238 18.7637 31.4354 18.9199 31.588C19.0761 31.7406 19.2928 31.8284 19.5137 31.8284C19.7346 31.8284 19.9512 31.7406 20.1074 31.588C20.2636 31.4354 20.3535 31.2246 20.3535 31.0081C20.3535 30.7923 20.2637 30.5807 20.1074 30.4281Z"
        fill="#fff" />
    <path
        d="M11.3145 7.21325C11.1583 7.06067 10.9416 6.9729 10.7207 6.9729C10.4998 6.9729 10.2831 7.06067 10.1269 7.21325C9.96988 7.36583 9.88086 7.57747 9.88086 7.79321C9.88086 8.00896 9.96988 8.2206 10.1269 8.37317C10.2831 8.52575 10.4998 8.61353 10.7207 8.61353C10.9416 8.61353 11.1574 8.52575 11.3145 8.37317C11.4706 8.21978 11.5605 8.00896 11.5605 7.79321C11.5605 7.57747 11.4707 7.36583 11.3145 7.21325Z"
        fill="#fff" />
    <path
        d="M37.7206 3.77368H33.4941C33.0304 3.77368 32.6543 4.14094 32.6543 4.59399C32.6543 5.04705 33.0303 5.41431 33.4941 5.41431H37.7206C38.1843 5.41431 38.5604 5.04705 38.5604 4.59399C38.5604 4.14094 38.1843 3.77368 37.7206 3.77368Z"
        fill="#fff" />
    <path
        d="M37.7206 10.9924H33.4941C33.0304 10.9924 32.6543 11.3597 32.6543 11.8127C32.6543 12.2658 33.0303 12.6331 33.4941 12.6331H37.7206C38.1843 12.6331 38.5604 12.2658 38.5604 11.8127C38.5604 11.3597 38.1843 10.9924 37.7206 10.9924Z"
        fill="#fff" />
    <path
        d="M37.7206 7.38306H33.4941C33.0304 7.38306 32.6543 7.75031 32.6543 8.20337C32.6543 8.65643 33.0303 9.02368 33.4941 9.02368H37.7206C38.1843 9.02368 38.5604 8.65643 38.5604 8.20337C38.5604 7.75031 38.1843 7.38306 37.7206 7.38306Z"
        fill="#fff" />
    <path
        d="M23.6112 3.77368H19.3848C18.921 3.77368 18.5449 4.14094 18.5449 4.59399C18.5449 5.04705 18.921 5.41431 19.3848 5.41431H23.6112C24.075 5.41431 24.451 5.04705 24.451 4.59399C24.451 4.14094 24.075 3.77368 23.6112 3.77368Z"
        fill="#fff" />
    <path
        d="M23.6112 7.38306H19.3848C18.921 7.38306 18.5449 7.75031 18.5449 8.20337C18.5449 8.65643 18.921 9.02368 19.3848 9.02368H23.6112C24.075 9.02368 24.451 8.65643 24.451 8.20337C24.451 7.75031 24.075 7.38306 23.6112 7.38306Z"
        fill="#fff" />
    <path
        d="M23.6112 10.9924H19.3848C18.921 10.9924 18.5449 11.3597 18.5449 11.8127C18.5449 12.2658 18.921 12.6331 19.3848 12.6331H23.6112C24.075 12.6331 24.451 12.2658 24.451 11.8127C24.451 11.3597 24.075 10.9924 23.6112 10.9924Z"
        fill="#fff" />
    <path
        d="M9.57031 20.1799H5.875C5.41124 20.1799 5.03516 20.5472 5.03516 21.0002V24.6096C5.03516 25.0627 5.41124 25.4299 5.875 25.4299H9.57031C10.0341 25.4299 10.4102 25.0627 10.4102 24.6096V21.0002C10.4102 20.5472 10.0342 20.1799 9.57031 20.1799ZM8.73047 23.7893H6.71484V21.8206H8.73047V23.7893Z"
        fill="#fff" />
    <path
        d="M9.57031 12.9612H5.875C5.41124 12.9612 5.03516 13.3284 5.03516 13.7815V17.3909C5.03516 17.8439 5.41124 18.2112 5.875 18.2112H9.57031C10.0341 18.2112 10.4102 17.8439 10.4102 17.3909V13.7815C10.4102 13.3284 10.0341 12.9612 9.57031 12.9612ZM8.73047 16.5706H6.71484V14.6018H8.73047V16.5706Z"
        fill="#fff" />
    <path
        d="M28.9736 23.7893H13.1426C12.6788 23.7893 12.3027 24.1566 12.3027 24.6096C12.3027 25.0627 12.6788 25.4299 13.1426 25.4299H28.9736C29.4374 25.4299 29.8135 25.0627 29.8135 24.6096C29.8135 24.1566 29.4374 23.7893 28.9736 23.7893Z"
        fill="#fff" />
    <path
        d="M33.3456 24.0297C33.1895 23.8771 32.9728 23.7893 32.752 23.7893C32.5311 23.7893 32.3144 23.8771 32.1582 24.0297C32.002 24.1822 31.9121 24.3939 31.9121 24.6096C31.9121 24.8254 32.0019 25.037 32.1582 25.1896C32.3145 25.3422 32.5311 25.4299 32.752 25.4299C32.9728 25.4299 33.1895 25.3422 33.3456 25.1896C33.5018 25.037 33.5918 24.8262 33.5918 24.6096C33.5918 24.3939 33.5019 24.1822 33.3456 24.0297Z"
        fill="#fff" />
    <path
        d="M42.6621 0.000244141H30.7601C29.892 0.000244141 29.1083 0.357162 28.5527 0.927936C27.9972 0.357162 27.2134 0.000244141 26.3454 0.000244141H14.4434C13.9796 0.000244141 13.6035 0.367498 13.6035 0.820557V18.7865C13.6035 19.2396 13.9796 19.6069 14.4434 19.6069H37.2871V27.8946C37.2618 27.8923 37.2363 27.8908 37.2103 27.8908H2.18164V9.43376C2.18164 8.98144 2.55839 8.61344 3.02148 8.61344H7.52867C7.99244 8.61344 8.36852 8.24619 8.36852 7.79313C8.36852 7.34007 7.99244 6.97282 7.52867 6.97282H3.02148C1.63221 6.97282 0.501953 8.07679 0.501953 9.43376V31.8284C0.501953 33.1853 1.63221 34.2893 3.02148 34.2893H15.5382V37.0801C13.2605 37.1232 11.4209 38.9451 11.4209 41.1799C11.4209 41.633 11.797 42.0002 12.2608 42.0002H27.2142C27.678 42.0002 28.054 41.633 28.054 41.1799C28.054 38.9451 26.2144 37.1232 23.9367 37.0801V34.2893H36.4473C37.8365 34.2893 38.9668 33.1853 38.9668 31.8284V19.6069H42.6621C43.1259 19.6069 43.502 19.2396 43.502 18.7865V0.820557C43.502 0.367498 43.1259 0.000244141 42.6621 0.000244141ZM15.2832 1.64087H26.3454C27.0994 1.64087 27.7129 2.24003 27.7129 2.97658V15.0828C27.3015 14.8801 26.8368 14.7659 26.3454 14.7659H15.2832V1.64087ZM15.2832 17.9662V16.4065H26.3454C27.0995 16.4065 27.7129 17.0057 27.7129 17.7422C27.7129 17.82 27.7247 17.895 27.7454 17.9662H15.2832ZM26.2305 40.3596H13.2445C13.5912 39.4046 14.5254 38.7187 15.6205 38.7187H23.8545C24.9496 38.7187 25.8838 39.4046 26.2305 40.3596ZM17.2179 37.078V34.2893H22.2569V37.078H17.2179ZM37.2871 31.8284C37.2871 32.2807 36.9104 32.6487 36.4473 32.6487H3.02148C2.55839 32.6487 2.18164 32.2807 2.18164 31.8284V29.5313H37.2103C37.2363 29.5313 37.2618 29.5298 37.2871 29.5276V31.8284ZM41.8223 17.9662H29.3601C29.3808 17.895 29.3926 17.82 29.3926 17.7422C29.3926 17.0057 30.0061 16.4065 30.7601 16.4065H41.8223V17.9662ZM41.8223 14.7659H30.7601C30.2686 14.7659 29.804 14.8801 29.3926 15.0828V2.97658C29.3926 2.24003 30.0061 1.64087 30.7601 1.64087H41.8223V14.7659Z"
        fill="#fff" />
</svg>