<svg width="38" height="25" viewBox="0 0 38 25" fill="none" xmlns="http://www.w3.org/2000/svg">
    <path
        d="M35.6025 0.400787H2.39748C1.35382 0.400787 0.5 1.23153 0.5 2.24691V22.5546C0.5 23.57 1.35382 24.4008 2.39748 24.4008H35.6026C36.6461 24.4008 37.5001 23.5701 37.5001 22.5546V2.24691C37.5 1.23153 36.6462 0.400787 35.6025 0.400787ZM34.8905 1.78531L20.0915 12.5855C19.8254 12.7825 19.417 12.9057 18.9999 12.9039C18.583 12.9057 18.1746 12.7825 17.9084 12.5855L3.10944 1.78531H34.8905ZM26.9854 13.2981L35.0495 22.9904C35.0576 23.0001 35.0675 23.0075 35.0761 23.0163H2.92393C2.93246 23.0071 2.94243 23.0001 2.95053 22.9904L11.0146 13.2981C11.2617 13.0009 11.2149 12.5651 10.9089 12.3242C10.6034 12.0838 10.1556 12.1293 9.90841 12.4266L1.92305 22.0243V2.65072L17.055 13.693C17.6238 14.1052 18.3159 14.2866 18.9999 14.2884C19.6829 14.287 20.3755 14.1056 20.9447 13.693L36.0767 2.65072V22.0242L28.0915 12.4266C27.8444 12.1294 27.3961 12.0837 27.0911 12.3242C26.7851 12.5646 26.7381 13.0009 26.9854 13.2981Z"
        fill="#fff" />
</svg>