<svg width="43" height="42" viewBox="0 0 43 42" fill="none" xmlns="http://www.w3.org/2000/svg">
    <path
        d="M40.1068 23.2929L32.5667 24.837L31.2965 24.3456C34.0372 21.6907 35.5914 18.0489 35.5914 14.2026C35.5914 10.4461 34.1336 6.90984 31.4866 4.24546C28.8419 1.58345 25.3202 0.102559 21.569 0.0752032C21.4975 0.0735651 21.4287 0.0735651 21.3572 0.0752032C17.6061 0.102559 14.0843 1.58353 11.4397 4.24546C8.79268 6.90992 7.33488 10.4461 7.33488 14.2026C7.33488 18.1302 8.9374 21.8145 11.768 24.4797L10.4705 24.8432L2.89959 23.2926L0.5 35.0998L9.61555 36.2993C9.39925 37.0536 9.58615 37.9008 10.1771 38.494C10.5969 38.9155 11.1553 39.1476 11.7494 39.1476C12.2382 39.1476 12.7026 38.9902 13.0858 38.6996C13.1892 39.0313 13.371 39.3433 13.6322 39.6056C14.0522 40.0271 14.6105 40.2591 15.2045 40.2591C15.5492 40.2591 15.8817 40.1805 16.1823 40.0325C16.277 40.3084 16.4317 40.5679 16.6507 40.7878C17.0256 41.164 17.524 41.3712 18.0544 41.3712C18.5848 41.3712 19.0833 41.164 19.4582 40.7878L19.5547 40.6908C19.6512 40.9282 19.7951 41.1507 19.9868 41.3431C20.3616 41.7194 20.8602 41.9267 21.3906 41.9266C21.921 41.9266 22.4194 41.7194 22.7942 41.3431L22.8173 41.32C23.2752 41.4704 23.7477 41.5454 24.2178 41.5454C25.1582 41.5454 26.0884 41.2495 26.8701 40.6786L33.0238 36.7962L42.5 35.0688L40.1068 23.2929ZM31.5649 22.225C30.7036 21.4452 29.7665 20.7757 28.7714 20.2223C29.2185 18.5397 29.4768 16.705 29.5227 14.8168H34.3474C34.2188 17.5385 33.2384 20.121 31.5649 22.225ZM30.7556 23.1494C30.5215 23.3922 30.2775 23.6272 30.0231 23.8529L27.7993 22.9926C28.0233 22.4948 28.2271 21.9731 28.4096 21.4305C29.2421 21.915 30.0285 22.4892 30.7556 23.1494ZM34.3479 13.5882H29.5229C29.4697 11.3759 29.1301 9.25104 28.536 7.35539C29.4134 6.84628 30.2403 6.2393 31.003 5.53952C32.9594 7.6916 34.2015 10.5025 34.3479 13.5882ZM30.1342 4.66988C29.5072 5.24058 28.8329 5.74289 28.1208 6.17361C27.8778 5.55279 27.6054 4.96268 27.3043 4.41008C26.7754 3.43953 26.1787 2.6205 25.5315 1.96389C27.2547 2.54015 28.8181 3.47114 30.1342 4.66988ZM22.0774 1.35625C23.6231 1.62382 25.0797 2.89561 26.2255 4.99806C26.5249 5.54755 26.7941 6.1379 27.0319 6.76192C25.4957 7.49815 23.8182 7.92322 22.0775 8.00423V1.35625H22.0774ZM22.0774 9.23351C23.9546 9.15374 25.7657 8.70917 27.4291 7.93338C27.9463 9.65654 28.2437 11.5807 28.2942 13.5882H22.0774V9.23351ZM22.0774 14.8168H28.2942C28.2512 16.5071 28.0295 18.1471 27.6493 19.6584C25.9118 18.8759 24.0277 18.4295 22.0774 18.3519V14.8168ZM22.0774 19.5811C23.9114 19.6607 25.6807 20.0957 27.3061 20.8532C27.1081 21.4638 26.8832 22.048 26.6302 22.5974H22.0774V19.5811ZM20.8489 1.35633V8.00423C19.1081 7.92322 17.4307 7.49815 15.8945 6.76192C16.1322 6.13799 16.4014 5.54763 16.7009 4.99806C17.8465 2.89586 19.3029 1.62415 20.8489 1.35633ZM15.2728 19.6603C14.8937 18.154 14.6747 16.5166 14.6322 14.8168H20.8489V18.3518C18.897 18.4296 17.0115 18.8766 15.2728 19.6603ZM20.8489 19.5811V22.5975H18.3245L18.2571 22.6612L16.5585 23.1372C16.1959 22.4336 15.8809 21.6688 15.6163 20.8551C17.2428 20.0964 19.0135 19.6607 20.8489 19.5811ZM15.3532 23.475L13.1736 24.0857C12.8206 23.7895 12.4863 23.4768 12.1704 23.1497C12.8968 22.4902 13.6824 21.9164 14.5139 21.4321C14.7566 22.1513 15.0371 22.8347 15.3532 23.475ZM14.6322 13.5882C14.6826 11.5808 14.98 9.65654 15.4973 7.93338C17.1607 8.70908 18.9717 9.15374 20.849 9.23351V13.5882H14.6322ZM17.3949 1.96389C16.7477 2.6205 16.1511 3.43953 15.6221 4.41008C15.3209 4.96268 15.0486 5.55271 14.8056 6.17361C14.0934 5.74289 13.4192 5.24058 12.7922 4.66988C14.1082 3.47114 15.6717 2.54015 17.3949 1.96389ZM11.9234 5.53952C12.6861 6.2393 13.513 6.8462 14.3903 7.35539C13.7963 9.25112 13.4566 11.3759 13.4035 13.5882H8.5785C8.72478 10.5025 9.96692 7.6916 11.9234 5.53952ZM11.359 22.2272C9.68427 20.1255 8.70684 17.5484 8.57891 14.8168H13.4035C13.4489 16.7155 13.7046 18.5469 14.1508 20.2246C13.1562 20.7781 12.2198 21.4475 11.359 22.2272ZM1.96623 34.0535L3.85843 24.7429L8.25293 25.6429L6.4971 34.6497L1.96623 34.0535ZM12.4514 37.6269C12.2637 37.8152 12.0144 37.9189 11.7495 37.9189C11.4845 37.9189 11.2352 37.8152 11.0475 37.6269C10.6588 37.2365 10.6588 36.6014 11.0475 36.211L12.5284 34.7246C12.7161 34.5362 12.9653 34.4325 13.2303 34.4325C13.4954 34.4325 13.7446 34.5362 13.9322 34.7246C14.3211 35.1149 14.3211 35.7501 13.9322 36.1403L12.4514 37.6269ZM15.9065 38.7385C15.7189 38.9268 15.4696 39.0305 15.2046 39.0305C14.9397 39.0305 14.6903 38.9268 14.5027 38.7386C14.1139 38.3482 14.1139 37.713 14.5027 37.3227L15.9836 35.8362C16.1712 35.6478 16.4205 35.5441 16.6855 35.5441C16.9505 35.5441 17.1998 35.6478 17.3874 35.8361C17.743 36.1932 17.7724 36.7545 17.4773 37.1465L15.9065 38.7385ZM20.4059 38.0957L18.5879 39.9207C18.4453 40.0638 18.2558 40.1426 18.0545 40.1426C17.8532 40.1426 17.6637 40.0637 17.5212 39.9207C17.2545 39.653 17.2289 39.2346 17.4428 38.937L19.3392 37.0183C19.4817 36.8751 19.6712 36.7963 19.8726 36.7963C20.0739 36.7963 20.2633 36.8752 20.4059 37.0183C20.7018 37.3153 20.7018 37.7986 20.4059 38.0957ZM22.9039 39.4924L21.9238 40.4761C21.7813 40.6193 21.5919 40.6981 21.3906 40.6981C21.1892 40.6981 20.9998 40.6193 20.8571 40.4761C20.5613 40.1791 20.5613 39.6958 20.8571 39.3988L21.8372 38.415C21.9797 38.272 22.1691 38.1932 22.3705 38.1931C22.5719 38.1931 22.7612 38.2719 22.9039 38.415C23.1997 38.712 23.1997 39.1953 22.9039 39.4924ZM26.1962 39.6511L26.1591 39.6765C25.482 40.1764 24.6502 40.3894 23.8344 40.2927C24.5435 39.5135 24.5249 38.3016 23.7743 37.548C23.3994 37.1717 22.9009 36.9645 22.3705 36.9645C22.1703 36.9645 21.9747 36.9942 21.7886 37.0511C21.7026 36.7214 21.5332 36.4092 21.2762 36.1513C20.9015 35.7751 20.403 35.5678 19.8726 35.5678C19.8726 35.5678 19.8726 35.5678 19.8725 35.5678C19.4885 35.5678 19.1215 35.677 18.8058 35.8797C18.7026 35.5464 18.5203 35.2325 18.2579 34.9691C17.838 34.5476 17.2796 34.3155 16.6856 34.3155C16.1969 34.3155 15.7324 34.473 15.3493 34.7634C15.2458 34.4318 15.064 34.1197 14.8027 33.8575C14.3829 33.436 13.8245 33.204 13.2304 33.204C12.6364 33.204 12.078 33.436 11.6581 33.8575L10.3622 35.1583L7.71753 34.8103L9.45666 25.8895L10.5157 26.1064L16.3375 24.475L12.104 28.4747L12.5492 28.9216C14.4151 30.7945 17.394 30.8528 19.3312 29.0541L20.2167 28.2317C21.0861 29.2427 23.161 31.5078 25.3064 32.764C27.7824 34.2139 30.2664 35.561 31.5727 36.2593L26.1962 39.6511ZM32.8952 35.5709C32.1156 35.1596 29.0143 33.5117 25.9269 31.7038C23.3663 30.2044 20.7784 26.9898 20.7524 26.9576L20.3393 26.4412L18.4949 28.1537C17.2032 29.3533 15.2924 29.4492 13.9035 28.4644L18.8129 23.826H26.5488L32.4598 26.1128L34.1964 25.7572L35.9987 35.0051L32.8952 35.5709ZM35.4002 25.5107L39.148 24.7433L41.0464 34.0851L37.2076 34.7849L35.4002 25.5107Z"
        fill="#fff" />
</svg>