<svg width="44" height="42" viewBox="0 0 44 42" fill="none" xmlns="http://www.w3.org/2000/svg">
    <path
        d="M19.3926 29.4421C19.2363 29.5946 19.1465 29.8062 19.1465 30.022C19.1465 30.2386 19.2363 30.4494 19.3926 30.6019C19.5488 30.7553 19.7654 30.8423 19.9863 30.8423C20.2072 30.8423 20.4239 30.7553 20.58 30.6019C20.7362 30.4494 20.8262 30.2377 20.8262 30.022C20.8262 29.8062 20.7363 29.5946 20.58 29.4421C20.4239 29.2895 20.2072 29.2017 19.9863 29.2017C19.7654 29.2017 19.5488 29.2895 19.3926 29.4421Z"
        fill="#fff" />
    <path
        d="M38.9668 33.0589C38.7459 33.0589 38.5292 33.1466 38.373 33.2992C38.2168 33.4519 38.127 33.6634 38.127 33.8792C38.127 34.0949 38.2167 34.3066 38.373 34.4591C38.5292 34.6116 38.7459 34.6995 38.9668 34.6995C39.1877 34.6995 39.4044 34.6117 39.5605 34.4591C39.7168 34.3066 39.8066 34.0949 39.8066 33.8792C39.8066 33.6634 39.7168 33.4518 39.5605 33.2992C39.4044 33.1466 39.1877 33.0589 38.9668 33.0589Z"
        fill="#fff" />
    <path
        d="M42.6621 21.8206H38.9668V14.9386C38.9668 13.0306 37.5818 11.3501 35.6735 10.9427L32.9285 10.3565C33.8714 9.5666 34.4704 8.39585 34.4704 7.09024V4.3038C34.4704 1.9308 32.494 0.000274658 30.0645 0.000274658C27.635 0.000274658 25.6585 1.9308 25.6585 4.3038V7.09032C25.6585 8.3942 26.256 9.56364 27.1968 10.3535L24.4524 10.9414C22.5459 11.35 21.1621 13.0303 21.1621 14.9368V18.5393H16.627C16.1632 18.5393 15.7871 18.9067 15.7871 19.3596V21.8206H9.9082V19.5237H13.4355C13.8993 19.5237 14.2754 19.1564 14.2754 18.7034V9.84402C14.2754 9.39105 13.8993 9.02371 13.4355 9.02371H1.3418C0.878035 9.02371 0.501953 9.39105 0.501953 9.84402V18.7034C0.501953 19.1564 0.878035 19.5237 1.3418 19.5237H4.86914V21.8206H1.3418C0.878035 21.8206 0.501953 22.1879 0.501953 22.6409V26.5784C0.501953 27.0314 0.878035 27.3987 1.3418 27.3987H4.19727V41.18C4.19727 41.6329 4.57335 42.0003 5.03711 42.0003H38.9668C39.4306 42.0003 39.8066 41.6329 39.8066 41.18V37.1604C39.8066 36.7075 39.4306 36.3401 38.9668 36.3401C38.503 36.3401 38.127 36.7075 38.127 37.1604V40.3596H5.87695V30.8426H16.627C17.0907 30.8426 17.4668 30.4753 17.4668 30.0223C17.4668 29.5693 17.0907 29.202 16.627 29.202H5.87695V27.3987H38.127V30.5979C38.127 31.0509 38.503 31.4182 38.9668 31.4182C39.4306 31.4182 39.8066 31.0509 39.8066 30.5979V27.3987H42.6621C43.1259 27.3987 43.502 27.0314 43.502 26.5784V22.6409C43.502 22.1879 43.1259 21.8206 42.6621 21.8206ZM27.3382 6.50913H28.4938C30.0454 6.50913 31.5275 6.06804 32.7908 5.2474V7.09032C32.7908 8.55859 31.5677 9.75322 30.0645 9.75322C28.5612 9.75322 27.3382 8.55859 27.3382 7.09032V6.50913ZM30.0645 11.3938C30.326 11.3938 30.5819 11.3702 30.831 11.3273L30.0541 13.0359L29.2755 11.3235C29.5317 11.3688 29.7951 11.3938 30.0645 11.3938ZM30.0645 1.6409C31.2118 1.6409 32.1952 2.33718 32.5969 3.31951C31.4716 4.32037 30.0259 4.8685 28.4938 4.8685H27.3382V4.3038C27.3382 2.83552 28.5612 1.6409 30.0645 1.6409ZM22.8418 14.9368C22.8418 13.795 23.6706 12.7886 24.8124 12.5439L27.7104 11.923L29.2867 15.3897C29.4214 15.6861 29.7223 15.8771 30.0543 15.8771C30.3863 15.8771 30.6871 15.6861 30.8219 15.3897L32.3984 11.9226L35.315 12.5455C36.4576 12.7895 37.2871 13.796 37.2871 14.9386V21.8206H28.2168V19.3596C28.2168 18.9067 27.8407 18.5393 27.377 18.5393H22.8418V14.9368ZM17.4668 20.18H26.5371V21.8206H17.4668V20.18ZM2.18164 10.6643H12.5957V17.8831H9.89502C9.76526 16.6443 8.69077 15.6746 7.38867 15.6746C6.08658 15.6746 5.01217 16.6443 4.88233 17.8831H2.18164V10.6643ZM6.54883 18.1355C6.54883 17.6832 6.92558 17.3152 7.38867 17.3152C7.85176 17.3152 8.22852 17.6832 8.22852 18.1355V21.8206H6.54883V18.1355ZM41.8223 25.7581H2.18164V23.4612H41.8223V25.7581Z"
        fill="#fff" />
</svg>