<svg width="42" height="41" viewBox="0 0 42 41" fill="none" xmlns="http://www.w3.org/2000/svg">
    <path
        d="M39.6368 37.1726C39.4517 36.4784 39.4519 35.7462 39.6368 35.053C41.7656 34.7686 41.7736 31.8404 39.6488 31.5432C40.6166 30.7119 41.2335 29.5056 41.2468 28.1653C41.2643 26.3806 40.1772 24.7061 38.5157 23.9571C39.3785 22.76 38.3865 21.0899 36.906 21.1767C36.7251 20.4905 36.7249 19.7664 36.906 19.0792C39.2992 19.2015 39.4565 15.5458 37.034 15.5458H32.6559L30.9424 9.91745L39.1563 7.81258C40.5724 7.44968 40.5744 5.42153 39.1563 5.05809L23.2197 0.97444C21.7654 0.6017 20.2279 0.6017 18.7735 0.97444L12.8476 2.49305C12.1207 2.67931 12.3927 3.82096 13.1528 3.62651L19.0787 2.10789C20.3335 1.7864 21.6599 1.7864 22.9146 2.10789L38.8511 6.1917C39.1076 6.2574 39.1075 6.61358 38.8511 6.67928L26.5864 9.82222L22.7261 6.40733V5.05082C22.6279 2.73673 19.248 2.73728 19.15 5.05082V6.71639C19.15 6.91999 19.2584 7.10905 19.4362 7.21562C20.2495 7.70273 21.2033 7.77164 22.0663 7.40554L25.1997 10.1775L22.9146 10.763C21.6598 11.0845 20.3334 11.0845 19.0786 10.763L3.14213 6.67928C2.88563 6.6135 2.88555 6.2574 3.14213 6.1917L10.1135 4.40527C10.8405 4.21902 10.5684 3.07713 9.80832 3.27182L2.83695 5.05825C1.42083 5.42114 1.41882 7.44929 2.83695 7.81274L11.0508 9.91753L9.3373 15.5459H7.88995C5.30058 15.5459 3.1736 17.5812 3.14869 20.0831C3.13572 21.3928 3.71333 22.6629 4.71072 23.5383H2.55691C0.274171 23.6146 0.109528 26.7457 2.35655 27.0605C2.54185 27.7546 2.54185 28.486 2.35655 29.1801C0.227645 29.4644 0.219557 32.3927 2.34438 32.6899C1.37654 33.5212 0.759691 34.7274 0.746318 36.0677C0.734146 37.299 1.21726 38.4596 2.10662 39.3358C2.99622 40.2122 4.18092 40.6949 5.4424 40.6949H39.4362C41.7116 40.6219 41.8902 37.4906 39.6368 37.1726ZM21.5248 6.35631C21.1411 6.50248 20.7339 6.50272 20.3512 6.3567V5.05082C20.3788 4.293 21.4974 4.29347 21.5248 5.05082V6.35631ZM36.5507 27.0717C37.9747 27.1284 37.978 29.111 36.5507 29.1692H11.401V27.0717H36.5507ZM10.1997 34.1238L8.54427 34.9712V27.0717H10.1997V34.1238ZM7.34308 29.1692H3.59097C3.73183 28.4773 3.73183 27.7636 3.59097 27.0717H7.34308V29.1692ZM7.63289 36.4416C7.82788 36.5482 8.02448 36.554 8.22267 36.4591L10.9483 35.064H38.4024C38.2619 35.7554 38.262 36.4696 38.4025 37.1616H5.4424C4.84982 37.1616 4.36766 36.6911 4.36766 36.1128C4.36766 35.5345 4.84982 35.064 5.4424 35.064H7.343V35.9403C7.34308 36.1454 7.45303 36.3355 7.63289 36.4416ZM35.6745 21.1768H7.84478C7.25219 21.1768 6.77004 20.7063 6.77004 20.1281C6.77004 19.5498 7.25219 19.0793 7.84478 19.0793H24.1137C24.0985 19.4966 24.1008 20.1086 24.7045 20.1086H28.161C28.7666 20.1086 28.767 19.4969 28.7519 19.0793H35.6746C35.5341 19.7713 35.534 20.4855 35.6745 21.1768ZM26.4328 15.0197C26.9621 15.0197 27.4659 16.852 27.5487 18.9368H25.317C25.3997 16.852 25.9036 15.0197 26.4328 15.0197ZM37.6435 17.3126C37.6435 17.6406 37.37 17.9074 37.0339 17.9074H28.6731C28.6336 17.509 28.5811 17.1117 28.5082 16.7178H37.0339C37.37 16.7179 37.6435 16.9847 37.6435 17.3126ZM31.4028 15.546H28.2081C27.9223 14.7253 27.5295 14.2006 27.0334 13.9752V10.9193L29.7801 10.2154L31.4028 15.546ZM12.2131 10.2154L18.7734 11.8965C20.2223 12.2678 21.7709 12.2678 23.2197 11.8965L25.8322 11.2271V13.9752C25.336 14.2006 24.9433 14.7253 24.6575 15.546H10.5904L12.2131 10.2154ZM5.36248 22.5265C4.70039 21.8743 4.34075 21.0105 4.3498 20.0945C4.36838 18.2326 5.95643 16.7179 7.88995 16.7179H24.3574C24.2846 17.1118 24.232 17.5091 24.1926 17.9075H7.84478C6.58978 17.9075 5.56885 18.9037 5.56885 20.1281C5.56885 21.3526 6.58986 22.3488 7.84478 22.3488H37.0338C37.7964 22.3488 37.8313 23.5384 37.0338 23.5384H7.84478C6.90641 23.5383 6.02482 23.179 5.36248 22.5265ZM1.94735 25.305C1.94735 24.977 2.22082 24.7102 2.55691 24.7102H36.5508C38.467 24.7102 40.064 26.2837 40.0457 28.154C40.0271 30.0159 38.439 31.5306 36.5055 31.5306H33.3555C32.6039 31.5306 32.5696 32.7025 33.3555 32.7025H39.4363C39.7724 32.7025 40.0458 32.9693 40.0458 33.2973C40.0458 33.6253 39.7724 33.8921 39.4363 33.8921H11.4009V32.7024H30.1901C30.9416 32.7024 30.9759 31.5306 30.1901 31.5306H11.4009V30.3409H36.5507C37.8057 30.3409 38.8267 29.3447 38.8267 28.1203C38.8267 26.8958 37.8057 25.8996 36.5507 25.8996H2.55691C2.22074 25.8998 1.94735 25.6329 1.94735 25.305ZM2.55691 31.5306C1.74995 31.5026 1.75059 30.3688 2.55691 30.341H7.34308V31.5306H2.55691ZM39.4363 39.523H5.4424C4.50396 39.523 3.62236 39.1637 2.96011 38.5112C2.29801 37.8588 1.93838 36.9952 1.94743 36.0791C1.966 34.2172 3.55406 32.7025 5.48757 32.7025H7.34308V33.8922H5.4424C2.4223 34.0145 2.42462 38.2122 5.4424 38.3335H39.4362C40.2432 38.3614 40.2427 39.4953 39.4363 39.523Z"
        fill="#fff" />
</svg>