<svg xmlns="http://www.w3.org/2000/svg" width="466" height="206" viewBox="0 0 466 206" fill="none">
<g>
<mask id="path-1-outside-1" maskUnits="userSpaceOnUse" x="0" y="0" width="466" height="206" fill="black">
<rect fill="white" width="466" height="206"/>
<path fill-rule="evenodd" clip-rule="evenodd" d="M233 93C282.706 93 323 52.7056 323 3V3C323 1.90247 323.881 1 324.978 1H457C461.418 1 465 4.58172 465 9V197C465 201.418 461.418 205 457 205H8.99999C4.58171 205 1 201.418 1 197V9C1 4.58172 4.58172 1 9 1H141.022C142.119 1 143 1.90247 143 3V3C143 52.7056 183.294 93 233 93Z"/>
</mask>
<path fill-rule="evenodd" clip-rule="evenodd" d="M233 93C282.706 93 323 52.7056 323 3V3C323 1.90247 323.881 1 324.978 1H457C461.418 1 465 4.58172 465 9V197C465 201.418 461.418 205 457 205H8.99999C4.58171 205 1 201.418 1 197V9C1 4.58172 4.58172 1 9 1H141.022C142.119 1 143 1.90247 143 3V3C143 52.7056 183.294 93 233 93Z" fill="url(#paint0_linear)" fill-opacity="0.6"/>
<path d="M322 3C322 52.1533 282.153 92 233 92V94C283.258 94 324 53.2579 324 3H322ZM324.978 2H457V0H324.978V2ZM457 2C460.866 2 464 5.13401 464 9H466C466 4.02944 461.971 0 457 0V2ZM464 9V197H466V9H464ZM464 197C464 200.866 460.866 204 457 204V206C461.971 206 466 201.971 466 197H464ZM457 204H8.99999V206H457V204ZM8.99999 204C5.134 204 2 200.866 2 197H0C0 201.971 4.02943 206 8.99999 206V204ZM2 197V9H0V197H2ZM2 9C2 5.13401 5.13401 2 9 2V0C4.02944 0 0 4.02944 0 9H2ZM9 2H141.022V0H9V2ZM233 92C183.847 92 144 52.1533 144 3H142C142 53.2579 182.742 94 233 94V92ZM141.022 2C141.553 2 142 2.44053 142 3H144C144 1.3644 142.686 0 141.022 0V2ZM324 3C324 2.44054 324.447 2 324.978 2V0C323.314 0 322 1.36439 322 3H324Z" fill="url(#paint1_linear)" fill-opacity="0.16" mask="url(#path-1-outside-1)"/>
</g>
<defs>
<filter id="filter0_b" x="-12" y="-12" width="490" height="230" filterUnits="userSpaceOnUse" color-interpolation-filters="sRGB">
<feFlood flood-opacity="0" result="BackgroundImageFix"/>
<feGaussianBlur in="BackgroundImage" stdDeviation="6"/>
<feComposite in2="SourceAlpha" operator="in" result="effect1_backgroundBlur"/>
<feBlend mode="normal" in="SourceGraphic" in2="effect1_backgroundBlur" result="shape"/>
</filter>
<linearGradient id="paint0_linear" x1="-463" y1="-203" x2="-368.631" y2="347.821" gradientUnits="userSpaceOnUse">
<stop stop-color="white" stop-opacity="0.4"/>
<stop offset="1" stop-color="white" stop-opacity="0"/>
</linearGradient>
<linearGradient id="paint1_linear" x1="1" y1="1" x2="20.6838" y2="234.638" gradientUnits="userSpaceOnUse">
<stop stop-color="white" stop-opacity="0.99"/>
<stop offset="1" stop-color="#EEEDED" stop-opacity="0.5"/>
<stop offset="1" stop-color="#EDEDEE" stop-opacity="0.5"/>
</linearGradient>
</defs>
</svg>